# xmcd
#
# Track frame offsets:
#	150
#	12209
#	22039
#	36120
#
# Disc length: 631 seconds
#
# Revision: 0
# Processed by: cddbd v1.5.1PL0 Copyright (c) Steve Scherf et al.
# Submitted via: dBpowerAMP V4.0
#
DISCID=26027504
DTITLE=Ray Madison - Battle Boogie (MAXI)
DYEAR=2004
DGENRE=Rockabilly
TTITLE0=Thats Allright
TTITLE1=Maybe Baby
TTITLE2=Nur Du
TTITLE3=Battle Boogie (Instrumental)
EXTD=Ray Madison, Madison Music
EXTT0=
EXTT1=
EXTT2=
EXTT3=
PLAYORDER=
